<?xml version="1.0" encoding="utf-8"?>
<!-- Generator: Adobe Illustrator 16.0.0, SVG Export Plug-In . SVG Version: 6.00 Build 0)  -->
<!DOCTYPE svg PUBLIC "-//W3C//DTD SVG 1.1//EN" "http://www.w3.org/Graphics/SVG/1.1/DTD/svg11.dtd">
<svg version="1.1" id="Layer_1" xmlns="http://www.w3.org/2000/svg" xmlns:xlink="http://www.w3.org/1999/xlink" x="0px" y="0px"
	 width="50px" height="50px" viewBox="0 0 50 50" style="enable-background:new 0 0 50 50;" xml:space="preserve">
<style type="text/css">
<![CDATA[
	.st0{fill:#FFF;stroke:#FFF;stroke-width:0.5;}
]]>
</style>
<g>
	<path class="st0" d="M42.6,17L42.6,17L42.6,17l0,0.1l0,0l0,0l-0.9,0.7c-0.6,0.4-1.1,0.9-1.5,1.3c-0.4,0.5-0.8,0.9-1.2,1.5
		c-0.3,0.5-0.6,1.1-0.8,1.6c-0.2,0.5-0.4,1.1-0.5,1.6c-0.1,0.6-0.2,1.3-0.2,2.3c0,1,0.1,1.8,0.2,2.4c0.1,0.6,0.3,1.2,0.6,1.8
		c0.2,0.6,0.5,1.1,0.9,1.6c0.3,0.5,0.7,1,1.1,1.4c0.4,0.4,0.8,0.8,1.2,1.1c0.4,0.3,0.8,0.7,1.4,1c0.5,0.3,0.8,0.5,0.8,0.5l0.1,0l0,0
		l0,0l0,0l0,0V36v0l-0.6,1.6c-0.4,1.1-0.9,2-1.3,2.9c-0.5,0.8-1,1.7-1.6,2.6c-0.6,0.9-1.2,1.6-1.7,2.2c-0.5,0.6-0.9,1.1-1.4,1.5
		c-0.4,0.4-0.8,0.7-1.3,1c-0.4,0.3-0.9,0.5-1.3,0.6c-0.4,0.1-0.7,0.2-0.8,0.2l-0.2,0l0,0l0,0l-0.4,0c-0.3,0-0.7-0.1-1.2-0.2
		c-0.5-0.1-1.3-0.3-2.4-0.7c-1-0.4-1.9-0.6-2.5-0.8c-0.6-0.1-1.2-0.2-1.8-0.2s-1.2,0-1.7,0.1s-1.2,0.3-2.2,0.7
		c-0.9,0.3-1.7,0.6-2.3,0.8l-0.9,0.2l-0.2,0l-0.2,0v0v0h-0.5h-0.5v0v0l-0.2,0l-0.2,0l-0.1,0c-0.1,0-0.2-0.1-0.3-0.1
		c-0.2,0-0.4-0.2-0.8-0.4c-0.4-0.2-0.8-0.5-1.3-0.8c-0.5-0.4-0.9-0.8-1.3-1.2c-0.4-0.4-0.9-1.1-1.6-2c-0.7-0.9-1.2-1.7-1.7-2.5
		S8.3,39.9,7.9,39c-0.4-0.9-0.8-1.9-1.2-3C6.3,35,6,34,5.7,32.9c-0.3-1.1-0.5-2.2-0.6-3.3l-0.2-1.7v-1.1v-1.1h0h0l0.1-1.3
		c0.1-0.8,0.2-1.6,0.4-2.4C5.7,21.3,6,20.6,6.2,20c0.3-0.6,0.6-1.2,0.9-1.8c0.4-0.6,0.7-1.1,1.1-1.5c0.4-0.4,0.8-0.8,1.1-1.2
		c0.4-0.4,0.9-0.8,1.5-1.1c0.6-0.4,1.2-0.7,1.9-1c0.6-0.3,1.3-0.5,1.9-0.6c0.7-0.2,1.4-0.2,2.1-0.2c0.8,0,1.5,0.1,2.3,0.3
		c0.8,0.2,1.7,0.5,2.9,0.9c1.2,0.4,1.9,0.7,2.1,0.7c0.2,0,0.5,0.1,0.8,0c0.3,0,1.3-0.3,2.9-0.9c1.7-0.6,2.8-0.9,3.5-1
		c0.7-0.1,1.3-0.2,2.1-0.2c0.7,0,1.5,0.1,2.3,0.2c0.8,0.2,1.5,0.4,2.1,0.6c0.6,0.2,1.1,0.5,1.6,0.8c0.5,0.3,1,0.6,1.4,1
		c0.4,0.4,0.8,0.8,1.2,1.2C42.3,16.6,42.5,16.9,42.6,17C42.6,17,42.6,17,42.6,17z"/>
	<path class="st0" d="M33.6,0.8L33.6,0.8l0.2,0H34l0,0.3c0,0.2,0,0.6,0,1.2c0,0.6-0.1,1.2-0.2,1.7c-0.1,0.5-0.3,1.1-0.5,1.6
		c-0.2,0.5-0.5,1.1-0.9,1.6c-0.4,0.6-0.7,1.1-1.1,1.5c-0.4,0.4-0.8,0.8-1.3,1.2c-0.5,0.4-0.9,0.7-1.4,0.9s-1,0.4-1.6,0.6
		c-0.6,0.1-1.1,0.2-1.7,0.2l-0.8,0l0-1.1c0-0.8,0.1-1.4,0.2-2C24.8,8.1,25,7.6,25.2,7c0.2-0.5,0.5-1,0.9-1.5c0.3-0.5,0.7-0.9,1-1.3
		c0.4-0.4,0.8-0.8,1.3-1.2c0.5-0.4,1-0.7,1.5-1c0.5-0.3,1.1-0.5,1.7-0.8s1.1-0.3,1.5-0.4C33.4,0.9,33.6,0.9,33.6,0.8z"/>
</g>
</svg>
